Coordinates
nRows=264
nColumns=2
inDegrees=yes
endheader
time	ankle_angle_r	
3.49294	 -5.345642	
3.52621	 -5.340576	
3.55948	 -5.290059	
3.59274	 -5.304703	
3.62601	 -5.325317	
3.65927	 -5.329478	
3.69254	 -5.325317	
3.72581	 -5.315801	
3.75907	 -5.279541	
3.79234	 -5.325317	
3.8256	 -5.322124	
3.85887	 -5.273412	
3.89214	 -5.340576	
3.9254	 -5.337963	
3.95867	 -5.279541	
3.99194	 -5.301316	
4.0252	 -5.303446	
4.05847	 -5.301509	
4.09173	 -5.333770	
4.125	 -5.348932	
4.15827	 -5.294800	
4.19153	 -5.347672	
4.2248	 -5.354962	
4.25806	 -5.340576	
4.29133	 -5.370607	
4.3246	 -5.332800	
4.35786	 -5.317638	
4.39113	 -5.363418	
4.4244	 -5.356122	
4.45766	 -5.302670	
4.49093	 -5.333284	
4.52419	 -5.333380	
4.55746	 -5.356895	
4.59073	 -5.318315	
4.62399	 -5.293353	
4.65726	 -5.338935	
4.69052	 -5.379640	
4.72379	 -5.294800	
4.75706	 -5.294800	
4.79032	 -5.327732	
4.82359	 -5.310059	
4.85685	 -5.340576	
4.89012	 -5.364962	
4.92339	 -5.340576	
4.95665	 -5.300739	
4.98992	 -5.359409	
5.02319	 -5.336808	
5.05645	 -5.359796	
5.08972	 -5.351680	
5.12298	 -5.355835	
5.15625	 -5.315417	
5.18952	 -5.371094	
5.22278	 -5.340576	
5.25605	 -5.320249	
5.28931	 -5.386353	
5.32258	 -5.330193	
5.35585	 -5.371094	
5.38911	 -5.375776	
5.42238	 -5.381767	
5.45565	 -5.360323	
5.48891	 -5.406003	
5.52218	 -5.371094	
5.55544	 -5.360034	
5.58871	 -5.329419	
5.62198	 -5.310059	
5.65524	 -5.329226	
5.68851	 -5.310059	
5.72177	 -5.332747	
5.75504	 -5.332554	
5.78831	 -5.313581	
5.82157	 -5.274557	
5.85484	 -5.340576	
5.8881	 -5.313290	
5.92137	 -5.291665	
5.95464	 -5.346653	
5.9879	 -5.310059	
6.02117	 -5.297645	
6.05444	 -5.328065	
6.0877	 -5.312710	
6.12097	 -5.282096	
6.15423	 -5.310059	
6.1875	 -5.325317	
6.22077	 -5.292535	
6.25403	 -5.323149	
6.2873	 -5.340576	
6.32056	 -5.268232	
6.35383	 -5.329073	
6.3871	 -5.365750	
6.42036	 -5.354150	
6.45363	 -5.403199	
6.4869	 -5.352852	
6.52016	 -5.355835	
6.55343	 -5.372392	
6.58669	 -5.385151	
6.61996	 -5.325317	
6.65323	 -5.356843	
6.68649	 -5.370183	
6.71976	 -5.384724	
6.75302	 -5.387788	
6.78629	 -5.355214	
6.81956	 -5.370569	
6.85282	 -5.371521	
6.88609	 -5.370431	
6.91935	 -5.325083	
6.95262	 -5.325317	
6.98589	 -5.355794	
7.01915	 -5.340632	
7.05242	 -5.386200	
7.08569	 -5.325566	
7.11895	 -5.326009	
7.15222	 -5.340576	
7.18548	 -5.324778	
7.21875	 -5.324682	
7.25202	 -5.325317	
7.28528	 -5.310059	
7.31855	 -5.354909	
7.35181	 -5.371094	
7.38508	 -5.310059	
7.41835	 -5.353403	
7.45161	 -5.354522	
7.48488	 -5.341985	
7.51815	 -5.343588	
7.55141	 -5.338974	
7.58468	 -5.310059	
7.61794	 -5.327114	
7.65121	 -5.399719	
7.68448	 -5.325317	
7.71774	 -5.305886	
7.75101	 -5.342759	
7.78427	 -5.294800	
7.81754	 -5.297176	
7.85081	 -5.368621	
7.88407	 -5.297369	
7.91734	 -5.345909	
7.9506	 -5.380827	
7.98387	 -5.343436	
8.01714	 -5.337620	
8.0504	 -5.380247	
8.08367	 -5.316358	
8.11694	 -5.367847	
8.1502	 -5.364408	
8.18347	 -5.333697	
8.21673	 -5.333503	
8.25	 -5.397978	
8.28327	 -5.363634	
8.31653	 -5.336750	
8.3498	 -5.393765	
8.38306	 -5.325317	
8.41633	 -5.401611	
8.4496	 -5.366880	
8.48286	 -5.362474	
8.51613	 -5.386353	
8.5494	 -5.340576	
8.58266	 -5.357294	
8.61593	 -5.401611	
8.64919	 -5.371094	
8.68246	 -5.345466	
8.71573	 -5.371094	
8.74899	 -5.376186	
8.78226	 -5.376274	
8.81552	 -5.361112	
8.84879	 -5.437502	
8.88206	 -5.355835	
8.91532	 -5.330884	
8.94859	 -5.361498	
8.98185	 -5.361595	
9.01512	 -5.416870	
9.04839	 -5.367742	
9.08165	 -5.312951	
9.11492	 -5.380206	
9.14819	 -5.407855	
9.18145	 -5.362175	
9.21472	 -5.364657	
9.24798	 -5.362369	
9.28125	 -5.288169	
9.31452	 -5.333849	
9.34778	 -5.322094	
9.38105	 -5.286461	
9.41431	 -5.303041	
9.44758	 -5.325317	
9.48085	 -5.287590	
9.51411	 -5.302107	
9.54738	 -5.264282	
9.58065	 -5.249023	
9.61391	 -5.332979	
9.64718	 -5.325575	
9.68044	 -5.264282	
9.71371	 -5.294800	
9.74698	 -5.233056	
9.78024	 -5.241845	
9.81351	 -5.317140	
9.84677	 -5.271267	
9.88004	 -5.257394	
9.91331	 -5.294800	
9.94657	 -5.255718	
9.97984	 -5.266345	
10.0131	 -5.286042	
10.0464	 -5.249023	
10.0796	 -5.251666	
10.1129	 -5.261446	
10.1462	 -5.276512	
10.1794	 -5.249023	
10.2127	 -5.310059	
10.246	 -5.346401	
10.2792	 -5.254751	
10.3125	 -5.315690	
10.3458	 -5.315593	
10.379	 -5.325317	
10.4123	 -5.326082	
10.4456	 -5.355835	
10.4788	 -5.320169	
10.5121	 -5.335525	
10.5454	 -5.330667	
10.5786	 -5.366236	
10.6119	 -5.391114	
10.6452	 -5.340576	
10.6784	 -5.319194	
10.7117	 -5.345047	
10.745	 -5.334066	
10.7782	 -5.371094	
10.8115	 -5.375275	
10.8448	 -5.375178	
10.878	 -5.371094	
10.9113	 -5.340576	
10.9446	 -5.336782	
10.9778	 -5.348440	
11.0111	 -5.340576	
11.0444	 -5.344080	
11.0776	 -5.401611	
11.1109	 -5.362456	
11.1442	 -5.340576	
11.1774	 -5.416870	
11.2107	 -5.404632	
11.244	 -5.340576	
11.2772	 -5.373921	
11.3105	 -5.383622	
11.3437	 -5.373728	
11.377	 -5.373631	
11.4103	 -5.371094	
11.4435	 -5.342920	
11.4768	 -5.416870	
11.5101	 -5.384202	
11.5433	 -5.371094	
11.5766	 -5.369137	
11.6099	 -5.416870	
11.6431	 -5.340576	
11.6764	 -5.340576	
11.7097	 -5.415300	
11.7429	 -5.294800	
11.7762	 -5.400234	
11.8095	 -5.385072	
11.8427	 -5.354651	
11.876	 -5.354748	
11.9093	 -5.326308	
11.9425	 -5.312739	
11.9758	 -5.370297	
12.0091	 -5.355134	
12.0423	 -5.356439	
12.0756	 -5.324811	
12.1089	 -5.339756	
12.1421	 -5.325631	
12.1754	 -5.355402	
12.2087	 -5.325438	
12.2419	 -5.310059	
